<svg width="512" height="512" viewBox="0 0 512 512" fill="none" xmlns="http://www.w3.org/2000/svg">
  <!-- Yellow person (center) -->
  <circle cx="256" cy="180" r="80" fill="#FFB81C"/>
  <path d="M256 280 C180 280 120 340 120 416 L120 512 L392 512 L392 416 C392 340 332 280 256 280 Z" fill="#FFB81C"/>
  
  <!-- Blue person (left) -->
  <circle cx="150" cy="200" r="65" fill="#004277"/>
  <path d="M150 285 C90 285 40 335 40 395 L40 512 L140 512 L140 400 C140 350 145 310 150 285 Z" fill="#004277"/>
  
  <!-- Blue person (right) -->
  <circle cx="362" cy="200" r="65" fill="#004277"/>
  <path d="M362 285 C422 285 472 335 472 395 L472 512 L372 512 L372 400 C372 350 367 310 362 285 Z" fill="#004277"/>
</svg>
